<?xml version="1.0" encoding="utf-8"?>
<!-- Generator: Adobe Illustrator 16.0.0, SVG Export Plug-In . SVG Version: 6.00 Build 0)  -->
<!DOCTYPE svg PUBLIC "-//W3C//DTD SVG 1.1//EN" "http://www.w3.org/Graphics/SVG/1.1/DTD/svg11.dtd">
<svg version="1.1" id="Layer_1" xmlns="http://www.w3.org/2000/svg" xmlns:xlink="http://www.w3.org/1999/xlink" x="0px" y="0px"
	 width="612px" height="612px" viewBox="0 0 612 612" enable-background="new 0 0 612 612" xml:space="preserve">
<linearGradient id="SVGID_1_" gradientUnits="userSpaceOnUse" x1="75.9558" y1="106.5522" x2="507.7978" y2="538.3942">
	<stop  offset="0" style="stop-color:#D73E3E"/>
	<stop  offset="1" style="stop-color:#D84141"/>
</linearGradient>
<path fill="url(#SVGID_1_)" d="M133.75,52.2c-4.59,0-7.65,3.06-7.65,7.65v474.3c0,4.59,3.061,7.649,7.65,7.649h367.199
	c4.59,0,7.65-3.06,7.65-7.649V174.6h-122.4V52.2H133.75z M401.5,51.2v107.1h107.1L401.5,51.2z M172,219.5h290.699v15.3H172V219.5z
	 M172,280.7h229.5V296H172V280.7z M172,341.9h290.699v15.3H172V341.9z M172,403.101h260.1v15.3H172V403.101z M172,464.3h290.699
	v15.301H172V464.3z"/>
</svg>
