<?xml version="1.0" encoding="utf-8"?>
<!-- Generator: Adobe Illustrator 16.0.0, SVG Export Plug-In . SVG Version: 6.00 Build 0)  -->
<!DOCTYPE svg PUBLIC "-//W3C//DTD SVG 1.1//EN" "http://www.w3.org/Graphics/SVG/1.1/DTD/svg11.dtd">
<svg version="1.1" id="Layer_1" xmlns="http://www.w3.org/2000/svg" xmlns:xlink="http://www.w3.org/1999/xlink" x="0px" y="0px"
	 width="612px" height="612px" viewBox="0 0 612 612" enable-background="new 0 0 612 612" xml:space="preserve">
<g>
	<linearGradient id="SVGID_1_" gradientUnits="userSpaceOnUse" x1="127.1692" y1="114.9639" x2="547.6008" y2="535.3955">
		<stop  offset="0" style="stop-color:#FA402D"/>
		<stop  offset="1" style="stop-color:#FA4028"/>
	</linearGradient>
	<path fill="url(#SVGID_1_)" d="M547.6,479.953L443.903,376.261c-15.54,5.269-33.033,2.933-46.815-6.967
		c64.667-72.77,62.17-184.614-7.54-254.333c-72.333-72.338-190.038-72.338-262.376,0c-72.339,72.343-72.339,190.042,0,262.386
		c69.714,69.715,181.563,72.206,254.317,7.54c9.895,13.772,12.235,31.271,6.972,46.815l103.688,103.692
		c15.315,15.314,40.138,15.314,55.457-0.005C562.91,520.086,562.91,495.263,547.6,479.953z M258.365,387.889
		c-78.155-0.015-141.729-63.584-141.729-141.729c0.005-78.145,63.574-141.724,141.72-141.724
		c78.149,0,141.719,63.574,141.724,141.724C400.073,324.305,336.504,387.879,258.365,387.889z"/>
	<linearGradient id="SVGID_2_" gradientUnits="userSpaceOnUse" x1="168.5725" y1="155.5176" x2="348.1445" y2="335.0895">
		<stop  offset="0" style="stop-color:#FA402D"/>
		<stop  offset="1" style="stop-color:#FA4028"/>
	</linearGradient>
	<path fill="url(#SVGID_2_)" d="M258.355,118.266c-70.047,0-127.027,56.989-127.032,127.032
		c0,70.057,56.985,127.031,127.042,127.046c70.047-0.01,127.021-56.989,127.026-127.036
		C385.386,175.255,328.406,118.266,258.355,118.266z M350.311,263.711c-8.632,0-15.618-6.991-15.618-15.608
		c0-43.139-35.089-78.243-78.242-78.243c-8.627,0-15.614-6.997-15.614-15.619c0-8.631,6.992-15.613,15.619-15.623
		c60.357,0,109.464,49.112,109.464,109.484C365.929,256.725,358.938,263.721,350.311,263.711z"/>
</g>
</svg>
