<?xml version="1.0" encoding="utf-8"?>
<!-- Generator: Adobe Illustrator 16.0.0, SVG Export Plug-In . SVG Version: 6.00 Build 0)  -->
<!DOCTYPE svg PUBLIC "-//W3C//DTD SVG 1.1//EN" "http://www.w3.org/Graphics/SVG/1.1/DTD/svg11.dtd">
<svg version="1.1" id="Layer_1" xmlns="http://www.w3.org/2000/svg" xmlns:xlink="http://www.w3.org/1999/xlink" x="0px" y="0px"
	 width="612px" height="612px" viewBox="0 0 612 612" enable-background="new 0 0 612 612" xml:space="preserve">
<linearGradient id="SVGID_1_" gradientUnits="userSpaceOnUse" x1="135.5549" y1="136.5459" x2="478.4561" y2="479.4471">
	<stop  offset="0" style="stop-color:#FB6118"/>
	<stop  offset="1" style="stop-color:#FC6718"/>
</linearGradient>
<path fill="url(#SVGID_1_)" d="M307.019,63.018c-11.119,0-22.043,0.789-32.737,2.317c-1.11,0.462-18.578,8.291-27.031,13.432
	c-8.655,5.298-3.836,10.651,0,12.065c3.878,1.475,5.82,0.528,5.935,3.411c0.049,2.883,22.141,0,17.315,5.299
	c-4.825,5.353-2.415,5.353,11.587,5.82c14.02,0.479,4.363,2.889-1.463,7.241c-5.777,4.357,11.587,6.3,0,6.3
	c-11.598,0-16.896,2.415-17.419,15.482c-0.576,13.056-10.135,11.593-16.896,12.545c-6.778,0.996,0,14.057-8.71,9.705
	c-8.715-4.357-7.251-1.948-21.781,2.889c-14.486,4.825-20.308,4.352-20.308,4.352s-5.777-1.931-7.187-6.289
	c-1.365-4.357,16.896-19.317,25.079-19.839c8.241-0.468-0.947-4.826-0.947-10.124c0-5.353,5.299,2.416,17.893-6.3
	c12.545-8.715,11.13-28.549,2.894-24.665c-8.241,3.878-11.124,3.416-11.124-3.362c0-6.768-9.188-5.353-17.43-2.465
	c-8.171,2.943,9.71,5.827,12.125,10.184c2.421,4.346-18.37,37.726-31.427,29.958c-13.072-7.708,5.299-16.429,11.593-18.833
	c6.3-2.421,2.421-9.656-5.293-11.125c-7.769-1.474-30.965,15.95-36.317,22.25c-5.299,6.289,7.295-0.473,17.892-1.001
	c10.652-0.468-5.298,8.715-1.888,13.54c3.362,4.88-1.937,10.178-10.184,14.536c-8.235,4.352-1.941,16.423-12.065,22.244
	c-10.189,5.832-1.475,8.709-10.189,17.419c-8.709,8.709-8.709-0.99-7.708-9.7c0.94-8.709,10.607-4.831,2.409-10.129
	c-8.235-5.299-3.878-6.773-7.24-12.121c-3.416-5.298-3.416,9.232-4.874,14.53c-1.431,5.31,0.984,6.773-2.421,9.183
	c-3.362,2.41-66.385,100.232-7.246-11.13c7.246-13.589,15.95-25.492,25.503-35.893c-43.384,44.347-70.252,105.585-70.252,173.231
	c0,135.331,107.412,245.007,239.914,245.007c2.878,0,5.777-0.049,8.606-0.207c-9.803-1.365-14.786-6.093-16.636-8.285
	c-4.303-5.353-28.016-14.068-12.065-23.729c15.944-9.65,0.479-31.427-11.136-40.604c-11.587-9.193-3.868-22.254-7.703-24.186
	c-3.89-1.953-15.487-5.777-15.015-13.666c0.468-7.855-9.656,0.594-20.775-2.301c-11.125-2.883-1.474-11.119-12.12-17.887
	c-10.597-6.768,5.82,13.067,4.825,16.936c-0.941,3.846-18.839,4.824-30.91,0c-12.12-4.831-41.61-28.522-35.79-44.488
	c5.772-15.956,5.772-23.207,7.246-36.253c1.475-13.077,36.731-27.085,38.2-30.97c1.414-3.868,1.942-13.062,13.54-10.168
	c11.598,2.938,33.837-7.725,46.909-8.203c13.066-0.457,12.077,13.072,13.066,18.834c0.952,5.836,24.144,8.252,35.316,13.556
	c11.076,5.337,5.772-11.13,14.487-12.55c8.715-1.475,33.842,5.767,41.562,5.293c7.768-0.463,10.651-24.654,3.89-24.186
	c-6.768,0.483-5.772,9.193-26.612-0.947c-20.771-10.167,15.487-20.308,22.255-25.176c6.767-4.836,25.654-4.836,15.955-9.662
	c-9.65-4.825-9.65-8.693-15.955-12.061c-6.3-3.416-0.947,7.709-7.72,9.172c-6.768,1.469-9.699-1.937-13.54,2.889
	c-3.873,4.826-1.464,14.998-4.825,16.945c-3.411,1.953-10.184,9.184-10.651,18.371c-0.479,9.188-4.82,9.662-4.82,2.998
	s-3.895-10.232-15.482-24.773c-11.598-14.482-10.662-9.656-12.125-6.246c-1.469,3.352,5.353,18.365,12.593,23.197
	c7.246,4.824-3.884,3.883-4.352,6.136c-0.474,2.301-4.83,3.046-4.362-3.253c0.473-6.3-17.898-20.787-24.654-26.618
	c-6.773-5.767-17.903,7.257-28.027,12.599c-10.178,5.31,9.183,3.357-8.236,13.062c-17.418,9.651-25.611,0.479-28.549-4.831
	c-2.883-5.336-14.486-27.597,7.769-28.059c22.244-0.479,24.665-2.895,24.665-8.236c0-5.314-9.705-6.251-8.715-12.094
	c0.952-5.82,12.071,3.367,15.95,0c3.884-3.41,21.776,3.367,26.145-13.937c4.347-17.326,9.645-7.366,10.592-2.486
	c1.001,4.831,7.763,0.946,10.184,1.888c2.41,1.006,55.102-32.374,32.64-28.963c-17.533,2.628-17.849-12.697-17.849-14.53
	c-0.055,0.321-0.114,1.044-0.321,2.41c-1.409,10.651-3.346-1.942-9.177,9.71c-5.767,11.598,4.357,21.722-3.884,27.075
	c-8.177,5.31-8.177-15.009-12.066-15.477c-3.884-0.533-1.931,7.235-9.183,3.83c-7.246-3.362-6.3-18.833,0-23.196
	c6.3-4.357,18.839-14.487,20.786-21.194c1.932-6.664,23.718-15.537,34.364-5.886c10.603,9.662,18.371,5.832,19.796,0
	c1.469-5.821-1.425-14.008-6.778-23.708c-5.293-9.662,2.943-34.8,6.306-16.896c3.405,17.887,14.002,37.721,13.534,29.011
	c-0.479-8.709,26.607,8.188,9.814-8.709c-16.745-16.945-8.351-21.308-5.941-15.003c2.427,6.299,21.782,16.478,17.533,11.598
	c-4.205-4.831-11.233-6.773-8.813-10.135c2.41-3.405,17.419-4.352,1.942-8.236c-15.482-3.884-14.536-13.072-14.536-19.312
	c0-6.3-5.304-9.71,0-14.063c5.299-4.357,9.183,6.767,10.505,4.352c1.3-2.41-0.8-2.883-5.157-12.54
	c-4.352-9.716,11.131-4.825,11.131-4.825c142.146,40.61,162.454,190.466,156.171,191.939c-6.3,1.475-5.777-0.457-9.183,12.093
	c-3.362,12.578,0.474,52.246-7.714,48.846c-8.253-3.355-5.358-17.887-13.546-24.653c-8.236-6.784-4.347,7.24-12.126,5.7
	c-7.708-1.566-3.873-23.131-17.419-7.643c-13.529,15.472-27.069,13.072-37.204,13.072c-10.184,0-37.737-28.043-18.888,1.469
	c18.888,29.484,23.708,17.887,26.597,13.523c2.954-4.362,16.483-19.355,15.966,3.362c-0.479,22.712-47.866,67.222-46.387,53.204
	c1.415-14.009,1.932-5.821-20.829-28.55c-22.724-22.724-26.612-23.659-28.974-21.249c-2.465,2.427,19.312,33.848,25.138,41.567
	c5.772,7.769,24.144,23.729,33.375,18.882c9.188-4.824,23.196-16.939,17.37-0.473c-5.777,16.434-44.979,77.361-44.979,77.361
	s52.273-6.777-11.81,40.132c-23.143,16.967-40.926,25.203-54.356,28.555c118.896-14.53,211.05-117.901,211.05-243.272
	C546.879,172.699,439.521,63.018,307.019,63.018z M238.595,238.349c-0.517,3.868-8.247,3.868-8.247,3.868
	c1.425-9.172,3.367-10.646,8.247-12.588C243.42,227.638,239.057,234.459,238.595,238.349z M261.318,242.695
	c-5.826,2.41-5.353,8.252-11.598,5.821c-6.3-2.399-9.227-6.299-2.933-8.704c0,0,5.348,1.937,0-5.832
	c-5.304-7.719-4.357-12.071,0-16.896c4.341-4.825,7.235-4.825,8.23-6.773c0.947-1.937-2.883,12.071,0,18.371
	C257.902,234.987,267.084,240.285,261.318,242.695z"/>
</svg>
