<?xml version="1.0" encoding="utf-8"?>
<!-- Generator: Adobe Illustrator 16.0.0, SVG Export Plug-In . SVG Version: 6.00 Build 0)  -->
<!DOCTYPE svg PUBLIC "-//W3C//DTD SVG 1.1//EN" "http://www.w3.org/Graphics/SVG/1.1/DTD/svg11.dtd">
<svg version="1.1" id="Layer_1" xmlns="http://www.w3.org/2000/svg" xmlns:xlink="http://www.w3.org/1999/xlink" x="0px" y="0px"
	 width="612px" height="612px" viewBox="0 0 612 612" enable-background="new 0 0 612 612" xml:space="preserve">
<linearGradient id="SVGID_1_" gradientUnits="userSpaceOnUse" x1="100.6985" y1="136.7002" x2="446.2976" y2="482.2993">
	<stop  offset="0" style="stop-color:#FCA949"/>
	<stop  offset="1" style="stop-color:#FD950C"/>
</linearGradient>
<path fill="url(#SVGID_1_)" d="M388.699,488.789h-272.79v-328.58h43.383v18.595h185.989v-18.595h43.413v78.978l24.793-24.793
	v-60.387c0-10.282-8.328-18.605-18.6-18.605h-50.463c-2.771-10.668-12.392-18.595-23.922-18.595h-37.831
	c0.401-2.012,0.621-4.068,0.621-6.218c0-17.072-13.904-30.982-31.001-30.982c-17.092,0-30.997,13.91-30.997,30.982
	c0,2.145,0.221,4.201,0.642,6.218h-37.841c-11.535,0-21.156,7.912-23.912,18.595h-50.482c-10.268,0-18.601,8.323-18.601,18.605
	v353.389c0,10.281,8.333,18.595,18.601,18.595h285.196c10.271,0,18.6-8.313,18.6-18.595V332.563l-24.793,24.799v131.428H388.699z
	 M252.297,92.008c10.271,0,18.604,8.343,18.604,18.585c0,2.193-0.45,4.26-1.15,6.218c-2.561,7.192-9.376,12.392-17.449,12.392
	c-8.068,0-14.884-5.2-17.444-12.392c-0.705-1.953-1.141-4.02-1.141-6.218C233.707,100.351,242.05,92.008,252.297,92.008z
	 M146.176,353.014v22.795c0,1.655,1.337,3.007,3.011,3.007h134.17l11.486-28.817H149.187
	C147.513,349.998,146.176,351.344,146.176,353.014z M146.176,421.626v22.776c0,1.67,1.337,3.025,3.011,3.025h206.229
	c1.665,0,3.011-1.355,3.011-3.025v-22.776c0-1.675-1.346-3.017-3.011-3.017H149.187
	C147.513,418.605,146.176,419.951,146.176,421.626z M346.495,281.395H149.187c-1.674,0-3.011,1.342-3.011,3.012v22.785
	c0,1.67,1.337,3.006,3.011,3.006h168.496L346.495,281.395z M358.432,238.594v-22.786c0-1.665-1.346-3.016-3.011-3.016H149.187
	c-1.674,0-3.011,1.351-3.011,3.016v22.786c0,1.66,1.337,3.001,3.011,3.001h206.229C357.081,241.595,358.432,240.253,358.432,238.594
	z M527.815,175.822l-16.651-16.646c-4.323-4.127-10.973-4.127-15.085,0l-18.032,18.013l31.741,31.75l18.027-18.032
	C531.922,186.799,531.922,180.131,527.815,175.822z M324.968,330.271c-0.377,0.396-0.588,0.773-0.778,1.18l-17.631,44.266
	c-0.387,1.38-0.2,2.941,0.773,3.926c0.804,0.598,1.572,0.975,2.551,0.975c0.397,0,0.789,0,1.361-0.191l44.294-17.631
	c0.387-0.2,0.784-0.396,1.176-0.793l142.493-142.483l-31.741-31.741L324.968,330.271z"/>
</svg>
